<svg width="144" height="105" viewBox="0 0 144 105" fill="none" xmlns="http://www.w3.org/2000/svg">
<mask id="mask0_208_1189" style="mask-type:alpha" maskUnits="userSpaceOnUse" x="0" y="0" width="144" height="105">
<rect width="144" height="105" fill="#D9D9D9"/>
</mask>
<g mask="url(#mask0_208_1189)">
<path d="M22.1362 61.5674H17.6404V63.6383H22.1893C24.4195 63.6383 25.5346 65.0897 25.5346 67.9394V71.7272H15.9766V73.7981H51.3235V67.7093C51.3235 63.8684 49.2703 61.5674 45.8365 61.5674H39.8716V63.6383H45.8896C48.0667 63.6383 49.1995 65.0189 49.2526 67.7624V71.7272H27.6232V67.7093C27.6232 63.8684 25.57 61.5674 22.1362 61.5674Z" fill="#402F82"/>
<path d="M10.9668 56.7891H8.70117V59.037H10.9668V56.7891Z" fill="#402F82"/>
<path d="M46.5078 75.958H44.2422V78.2059H46.5078V75.958Z" fill="#402F82"/>
<path d="M7.44333 56.7891H5.17773V59.037H7.44333V56.7891Z" fill="#402F82"/>
<path d="M2.48828 67.6916C2.48828 72.7538 5.51498 73.8158 8.06378 73.8158C10.6126 73.8158 13.657 72.7538 13.657 67.6916C13.657 62.6294 10.6126 61.5674 8.06378 61.5674C5.51498 61.5674 2.48828 62.6294 2.48828 67.6916ZM8.06378 63.6383C10.5595 63.6383 11.5684 64.8065 11.5684 67.6739C11.5684 70.5413 10.5595 71.7095 8.06378 71.7095C5.62118 71.7095 4.57688 70.5059 4.57688 67.6739C4.57688 64.8419 5.62118 63.6383 8.06378 63.6383Z" fill="#402F82"/>
<path d="M51.0039 27.3539C51.411 27.3539 51.8181 27.4247 52.2075 27.5486L52.5792 27.6902V26.4689L52.4022 26.4158C51.942 26.2565 51.4641 26.168 50.9862 26.168C49.5879 26.168 48.7914 26.9468 48.7914 28.292V29.6195C48.7914 29.8496 48.6498 29.8496 48.5967 29.8496H47.6055V31.0355H52.5792V29.8496H49.9596V28.115C49.995 27.6548 50.172 27.3539 51.0039 27.3539Z" fill="#402F82"/>
<path d="M18.7011 34.0264H16.4355V36.2743H18.7011V34.0264Z" fill="#402F82"/>
<path d="M10.2578 34.0264H7.99219V36.2743H10.2578V34.0264Z" fill="#402F82"/>
<path d="M6.7363 34.0264H4.4707V36.2743H6.7363V34.0264Z" fill="#402F82"/>
<path d="M51.3404 33.3008H49.2695V51.0539H51.3404V33.3008Z" fill="#402F82"/>
<path d="M26.4375 33.3008V46.9652C26.4375 49.6733 27.8889 51.0539 30.7563 51.0539H33.3759C34.6326 51.0539 35.5884 50.7884 36.2964 50.2574L37.4469 50.6114C38.4204 50.9123 39.4293 51.0539 40.4559 51.0716C42.9516 51.0716 45.8544 49.4963 45.8544 45.0359C45.8544 40.4693 43.1817 38.8409 40.6683 38.8409C35.8008 38.8409 35.553 42.1331 35.553 42.788V46.7882C35.553 48.2219 35.199 48.9653 33.2166 49.0007H30.7563C28.827 48.9653 28.5084 48.275 28.5084 46.7882V33.3362L26.4375 33.3008ZM37.6416 46.9652V42.8234C37.677 41.5136 38.6682 40.8764 40.6683 40.8764C42.1728 40.8764 43.7658 41.9561 43.7658 45.0005C43.7658 47.6732 42.6684 48.9653 40.4382 48.9653C39.4293 48.9653 38.4381 48.7706 37.5177 48.3812L37.4646 48.3635C37.5885 47.9033 37.6416 47.4254 37.6416 46.9652Z" fill="#402F82"/>
<path d="M2.13477 44.6111C2.13477 47.9387 4.20567 49.9211 7.65717 49.9211C8.70147 49.9211 9.74577 49.7618 10.7547 49.4609L11.091 49.3547C11.7636 50.4875 13.0203 51.0539 14.8434 51.0539H18.702C21.5694 51.0539 23.0208 49.6733 23.0208 46.9652V38.8055H20.9499V46.7528C20.9499 48.2219 20.6313 48.8945 18.8259 48.9653H14.808C12.9141 48.9122 12.5955 48.2396 12.5955 46.7528V42.3455C12.5955 41.4251 12.2238 38.3984 7.53327 38.3984C6.27657 38.3984 2.13477 38.8586 2.13477 44.6111ZM7.53327 40.487C9.51567 40.487 10.5069 41.1419 10.5069 42.4163V47.3015C9.69267 47.6555 8.80767 47.8325 7.92267 47.8325C4.59507 47.8325 4.20567 45.9032 4.20567 44.4695C4.22337 40.9649 5.88717 40.487 7.53327 40.487Z" fill="#402F82"/>
<path d="M73.041 79.2853H132.938C138.903 79.2853 143.735 74.4355 143.735 68.4706V49.6909C143.735 35.2654 133.61 28.5748 132.46 27.8668L131.239 27.1234C129.398 25.9375 127.026 25.9198 125.168 27.088L123.875 27.8668C123.327 28.2031 120.707 29.92 118.141 33.2122C116.211 22.132 108.264 16.9459 107.237 16.3264L105.839 15.4768C104.972 14.9812 103.998 14.7334 103.007 14.7334C101.945 14.7334 100.883 15.0166 99.9804 15.583L98.7414 16.3264C97.7325 16.9459 89.7852 22.132 87.8559 33.1945C85.2717 29.9023 82.6167 28.1854 82.068 27.8491L80.8467 27.1057C79.0059 25.9375 76.6518 25.9375 74.811 27.1057L73.5543 27.8668C72.4038 28.5748 62.2617 35.2477 62.2617 49.7086V68.4706C62.2617 74.4178 67.0938 79.2676 73.041 79.2853ZM107.645 67.0723V38.1682C107.645 37.8142 107.627 37.4425 107.609 37.0531V37.0177C107.609 37 107.609 36.9646 107.609 36.9469C107.591 36.6283 107.574 36.3097 107.521 35.9911C107.131 32.5042 105.521 29.2474 103.007 26.8048C100.476 29.2474 98.883 32.4865 98.4936 35.9911C98.4582 36.3097 98.4228 36.6283 98.4051 36.9469C98.4051 36.9823 98.4051 37.0177 98.4051 37.0531C98.3874 37.3717 98.3697 37.7257 98.3697 38.1682V44.4517C98.3697 47.3722 96.0333 49.7617 93.1128 49.8148C93.0066 49.8148 92.9181 49.744 92.9004 49.6378C92.9004 49.6378 92.9004 49.6378 92.9004 49.6201V38.1505C92.9004 26.38 101.237 21.1585 101.591 20.9638L102.919 20.1673C102.972 20.1319 103.06 20.1319 103.113 20.1496L104.423 20.9461C104.777 21.1585 113.114 26.3446 113.114 38.1328V66.8422C113.114 67.6387 113.751 68.2759 114.548 68.2936H131.38C132.177 68.2936 132.814 67.6387 132.814 66.8422V49.6555C132.814 49.2838 132.796 48.9121 132.779 48.5404C132.779 48.5227 132.779 48.4873 132.779 48.4696V48.4342C132.761 48.0802 132.725 47.7616 132.69 47.4784C132.106 42.664 129.628 39.6727 128.159 38.2921C126.725 39.6373 124.229 42.6463 123.645 47.4784C123.61 47.7616 123.592 48.0802 123.557 48.4342V48.4696C123.557 48.4873 123.557 48.5227 123.557 48.5404C123.539 48.8944 123.521 49.2661 123.521 49.6555V61.1251C123.521 61.2313 123.433 61.3198 123.327 61.3198C120.406 61.2667 118.07 58.8772 118.07 55.9567L118.052 49.6555C118.052 38.1682 125.876 33.0175 126.761 32.4688L128.07 31.6723C128.106 31.6546 128.141 31.6369 128.177 31.6369C128.23 31.6369 128.265 31.6546 128.3 31.6723L129.593 32.4511C129.947 32.6635 138.283 37.9027 138.283 49.6378V68.3998C138.283 71.3557 135.894 73.7452 132.938 73.7629H93.0951C92.9889 73.7629 92.9004 73.6744 92.9004 73.5682C92.9358 70.6477 95.3076 68.2936 98.2281 68.2759H108.087C107.698 68.0458 107.662 67.6564 107.645 67.0723ZM67.731 49.7086C67.731 37.9912 76.0677 32.7343 76.4217 32.5219L77.7315 31.7254C77.7669 31.7077 77.8023 31.69 77.8377 31.69C77.8731 31.69 77.9085 31.7077 77.9439 31.7254L79.236 32.5042C79.59 32.7166 87.9267 37.885 87.9267 49.6909V73.6213C87.9267 73.7275 87.8382 73.816 87.732 73.816H73.041C70.0851 73.7983 67.7133 71.4088 67.7133 68.4529L67.731 49.7086Z" fill="url(#paint0_linear_208_1189)"/>
<path d="M74.5976 68.3285H82.4564V49.7081C82.4564 49.3541 82.4564 48.9824 82.421 48.593V48.5576C82.421 48.5222 82.421 48.5045 82.421 48.4691C82.3856 48.0974 82.3679 47.7965 82.3325 47.531C81.7484 42.7166 79.2704 39.7253 77.819 38.3447C76.3853 39.6899 73.8896 42.6989 73.3055 47.531C73.2701 47.8319 73.2347 48.1682 73.217 48.4868V48.5753C73.1816 48.9824 73.1816 49.3541 73.1816 49.7081V66.8948C73.1816 67.6913 73.8188 68.3285 74.5976 68.3285Z" fill="url(#paint1_linear_208_1189)"/>
<path d="M92.9004 73.621C92.9004 73.7272 92.9889 73.8157 93.0951 73.8157H132.938C135.894 73.798 138.283 71.4085 138.283 68.4526V49.6906C138.283 37.9378 129.946 32.7163 129.592 32.5039L128.3 31.7251C128.265 31.7074 128.212 31.6897 128.176 31.6897C128.141 31.6897 128.106 31.7074 128.07 31.7251L126.76 32.5216C125.875 33.0703 118.052 38.2387 118.052 49.7083L118.07 56.0095C118.07 58.93 120.406 61.3195 123.327 61.3726C123.433 61.3726 123.521 61.2841 123.521 61.1779V49.7083C123.521 49.3012 123.539 48.9472 123.557 48.5932C123.557 48.5755 123.557 48.5578 123.557 48.5224V48.487C123.574 48.133 123.61 47.8144 123.645 47.5312C124.229 42.6991 126.725 39.7078 128.159 38.3449C129.61 39.7255 132.088 42.7168 132.69 47.5312C132.725 47.8144 132.743 48.133 132.778 48.487V48.5224C132.778 48.5401 132.778 48.5755 132.778 48.5932C132.796 48.9649 132.814 49.3366 132.814 49.7083V66.895C132.814 67.6915 132.177 68.3287 131.38 68.3464H114.565C113.769 68.3464 113.131 67.6915 113.131 66.895V38.1856C113.131 26.3797 104.795 21.1936 104.441 20.9989L103.131 20.2024C103.06 20.167 102.989 20.167 102.936 20.2201L101.609 21.0166C101.255 21.229 92.9181 26.4328 92.9181 38.2033V49.6729C92.9181 49.7791 93.0066 49.8676 93.1128 49.8676C96.0333 49.8145 98.3697 47.425 98.3697 44.5045V38.221C98.3697 37.7785 98.3874 37.4245 98.4051 37.1059C98.4051 37.0705 98.4051 37.0351 98.4051 36.9997C98.4228 36.6811 98.4582 36.3625 98.4936 36.0439C98.883 32.557 100.476 29.3002 103.007 26.8576C105.538 29.3002 107.131 32.5393 107.521 36.0439C107.574 36.3625 107.591 36.6811 107.609 36.9997C107.609 37.0174 107.609 37.0528 107.609 37.0705V37.1059C107.627 37.4953 107.644 37.867 107.644 38.221V67.1251C107.644 67.6915 107.68 68.0809 108.069 68.3818H98.2458C95.3076 68.3641 92.9358 70.7182 92.9004 73.621Z" fill="white"/>
<path d="M73.0406 73.8163H87.7316C87.8378 73.8163 87.9263 73.7278 87.9263 73.6216V49.7089C87.9263 37.903 79.5896 32.7346 79.2356 32.5222L77.9435 31.7434C77.9081 31.7257 77.8727 31.708 77.8373 31.708C77.8019 31.708 77.7665 31.708 77.7311 31.7434L76.4213 32.5399C76.0673 32.7523 67.7306 38.0092 67.7306 49.7266V68.4886C67.7129 71.4091 70.1024 73.8163 73.0406 73.8163ZM73.1645 49.7089C73.1645 49.3372 73.1645 48.9655 73.1999 48.5761V48.4876C73.2176 48.169 73.253 47.8504 73.2884 47.5318C73.8725 42.6997 76.3682 39.7084 77.8019 38.3455C79.2533 39.7261 81.7313 42.7174 82.3154 47.5318C82.3508 47.7973 82.3685 48.0982 82.4039 48.4699C82.4039 48.5053 82.4039 48.523 82.4039 48.5584V48.5938C82.4216 48.9832 82.4393 49.3549 82.4393 49.7089V68.347H74.5805C73.784 68.347 73.1468 67.6921 73.1468 66.8956V49.7089H73.1645Z" fill="white"/>
<path d="M70.2793 17.7956C70.2793 19.4948 71.6599 20.8754 73.3591 20.8754C75.0583 20.8754 76.4389 19.4948 76.4389 17.7956C76.4389 16.0964 75.0583 14.7158 73.3591 14.7158C71.6599 14.7158 70.2793 16.0964 70.2793 17.7956Z" fill="#06A9B6"/>
<path d="M79.2168 17.7956C79.2168 19.4948 80.5974 20.8754 82.2966 20.8577C83.9958 20.8577 85.3764 19.4771 85.3587 17.7779C85.3587 16.0787 83.9781 14.7158 82.2789 14.7158C80.5974 14.7158 79.2168 16.0787 79.2168 17.7956Z" fill="#06A9B6"/>
<path d="M125.096 87.7994C125.096 89.4986 126.459 90.8792 128.158 90.8792C129.857 90.8792 131.238 89.5163 131.238 87.8171C131.238 86.1179 129.875 84.7373 128.175 84.7373C128.175 84.7373 128.176 84.7373 128.158 84.7373C126.476 84.7373 125.096 86.1179 125.096 87.7994Z" fill="#402F82"/>
</g>
<defs>
<linearGradient id="paint0_linear_208_1189" x1="103.001" y1="14.3772" x2="103.001" y2="79.0301" gradientUnits="userSpaceOnUse">
<stop stop-color="#06A9B6"/>
<stop offset="0.2" stop-color="#06A9B6"/>
<stop offset="0.37" stop-color="#1D78A1"/>
<stop offset="0.54" stop-color="#305090"/>
<stop offset="0.67" stop-color="#3C3886"/>
<stop offset="0.75" stop-color="#402F82"/>
<stop offset="1" stop-color="#402F82"/>
</linearGradient>
<linearGradient id="paint1_linear_208_1189" x1="77.8261" y1="14.3767" x2="77.8261" y2="79.0296" gradientUnits="userSpaceOnUse">
<stop stop-color="#06A9B6"/>
<stop offset="0.2" stop-color="#06A9B6"/>
<stop offset="0.37" stop-color="#1D78A1"/>
<stop offset="0.54" stop-color="#305090"/>
<stop offset="0.67" stop-color="#3C3886"/>
<stop offset="0.75" stop-color="#402F82"/>
<stop offset="1" stop-color="#402F82"/>
</linearGradient>
</defs>
</svg>
