<?xml version="1.0" standalone="no"?>
<!DOCTYPE svg PUBLIC "-//W3C//DTD SVG 20010904//EN"
 "http://www.w3.org/TR/2001/REC-SVG-20010904/DTD/svg10.dtd">
<svg version="1.0" xmlns="http://www.w3.org/2000/svg"
 width="452.000000pt" height="452.000000pt" viewBox="0 0 452.000000 452.000000"
 preserveAspectRatio="xMidYMid meet">
<metadata>
Created by potrace 1.14, written by Peter Selinger 2001-2017
</metadata>
<g transform="translate(0.000000,452.000000) scale(0.100000,-0.100000)"
fill="#000000" stroke="none">
<path d="M2919 3696 c-2 -2 -36 -6 -74 -10 -75 -7 -101 -11 -180 -26 -27 -6
-59 -12 -70 -14 -76 -15 -251 -72 -366 -121 -86 -36 -286 -143 -333 -178 -6
-4 -48 -34 -93 -67 -102 -74 -124 -92 -238 -205 -94 -93 -142 -146 -185 -205
-14 -18 -34 -45 -46 -59 -123 -155 -258 -432 -330 -676 -14 -48 -31 -114 -41
-165 -4 -19 -8 -37 -8 -40 -1 -3 -5 -32 -9 -65 -5 -33 -11 -69 -14 -80 -3 -11
-7 -260 -9 -553 l-5 -534 539 5 c296 3 549 7 563 10 14 3 43 8 65 12 128 19
274 57 415 107 94 33 333 146 338 160 2 4 8 8 14 8 12 0 176 110 238 159 182
146 337 314 471 511 164 244 304 605 334 865 4 32 10 68 13 80 3 11 7 260 9
553 l5 533 -500 -1 c-275 -1 -502 -3 -503 -4z"/>
</g>
</svg>
