<svg width="24" height="24" viewBox="0 0 24 24" fill="none" xmlns="http://www.w3.org/2000/svg">
<path fill-rule="evenodd" clip-rule="evenodd" d="M20.5307 12.5298C20.6711 12.3892 20.75 12.1986 20.75 11.9998C20.75 11.8011 20.6711 11.6105 20.5307 11.4698L14.5307 5.46985C14.462 5.39616 14.3792 5.33706 14.2872 5.29607C14.1952 5.25507 14.0959 5.23303 13.9952 5.23126C13.8945 5.22948 13.7945 5.248 13.7011 5.28572C13.6077 5.32344 13.5228 5.37959 13.4516 5.45081C13.3804 5.52203 13.3243 5.60686 13.2865 5.70025C13.2488 5.79364 13.2303 5.89367 13.2321 5.99437C13.2338 6.09507 13.2559 6.19439 13.2969 6.28639C13.3379 6.37838 13.397 6.46119 13.4707 6.52985L18.1907 11.2498H4.00066C3.80175 11.2498 3.61098 11.3289 3.47033 11.4695C3.32968 11.6102 3.25066 11.8009 3.25066 11.9998C3.25066 12.1988 3.32968 12.3895 3.47033 12.5302C3.61098 12.6708 3.80175 12.7498 4.00066 12.7498H18.1907L13.4707 17.4698C13.397 17.5385 13.3379 17.6213 13.2969 17.7133C13.2559 17.8053 13.2338 17.9046 13.2321 18.0053C13.2303 18.106 13.2488 18.2061 13.2865 18.2994C13.3243 18.3928 13.3804 18.4777 13.4516 18.5489C13.5228 18.6201 13.6077 18.6762 13.7011 18.714C13.7945 18.7517 13.8945 18.7702 13.9952 18.7684C14.0959 18.7667 14.1952 18.7446 14.2872 18.7036C14.3792 18.6626 14.462 18.6035 14.5307 18.5298L20.5307 12.5298Z" fill="#5EBD8E"/>
</svg>
