<svg width="52" height="52" viewBox="0 0 52 52" fill="none" xmlns="http://www.w3.org/2000/svg">
<path d="M26.9945 3.59787C26.7062 3.37306 26.351 3.25098 25.9854 3.25098C25.6198 3.25098 25.2646 3.37306 24.9762 3.59787L1.625 21.806L3.64488 24.3605L6.5 22.1342V42.2501C6.50172 43.1115 6.84468 43.9372 7.4538 44.5463C8.06292 45.1554 8.88857 45.4984 9.75 45.5001H42.25C43.1114 45.4984 43.9371 45.1554 44.5462 44.5463C45.1553 43.9372 45.4983 43.1115 45.5 42.2501V22.1489L48.3551 24.3751L50.375 21.8206L26.9945 3.59787ZM29.25 42.2501H22.75V29.2501H29.25V42.2501ZM32.5 42.2501V29.2501C32.4991 28.3884 32.1565 27.5623 31.5471 26.953C30.9378 26.3437 30.1117 26.001 29.25 26.0001H22.75C21.8883 26.001 21.0622 26.3437 20.4529 26.953C19.8435 27.5623 19.5009 28.3884 19.5 29.2501V42.2501H9.75V19.6009L26 6.94212L42.25 19.6171V42.2501H32.5Z" fill="black"/>
</svg>
