<svg width="120" height="53" viewBox="0 0 120 53" fill="none" xmlns="http://www.w3.org/2000/svg">
<path d="M71.4364 27.1445C67.3038 27.1445 63.9531 30.5121 63.9531 34.6482C63.9531 38.7842 67.3038 42.1518 71.4364 42.1518C72.933 42.1518 74.3403 41.6998 75.5019 40.9313C75.7253 41.632 76.3954 42.1518 77.1549 42.1518C78.1154 42.1518 78.8973 41.3607 78.8973 40.4115V34.6708C78.9196 30.4895 75.5689 27.1445 71.4364 27.1445ZM71.4364 38.626C69.2472 38.626 67.4602 36.8405 67.4602 34.6256C67.4602 32.4332 69.2472 30.6251 71.4364 30.6251C73.6255 30.6251 75.4125 32.4106 75.4125 34.6256C75.4349 36.8405 73.6478 38.626 71.4364 38.626Z" fill="white"/>
<path d="M26.5377 32.8853H22.8966C22.2711 32.8853 21.7797 32.388 21.7797 31.7552C21.7797 31.145 22.2711 30.6251 22.8966 30.6251H28.7491C29.7097 30.6251 30.4915 29.8341 30.4915 28.8848C30.4915 27.913 29.7097 27.1445 28.7491 27.1445H22.8966C20.35 27.1445 18.2949 29.2239 18.2949 31.7778C18.2949 34.3317 20.3724 36.4111 22.8966 36.4111H26.5377C27.1631 36.4111 27.6546 36.9083 27.6546 37.5411C27.6546 38.1514 27.1631 38.6712 26.5377 38.6712H20.6628C19.7022 38.6712 18.9204 39.4622 18.9204 40.4115C18.9204 41.3833 19.7022 42.1518 20.6628 42.1518H26.5153C29.0619 42.1518 31.117 40.0725 31.117 37.5185C31.1393 34.9646 29.0619 32.8853 26.5377 32.8853Z" fill="white"/>
<path d="M60.5807 21.3809C59.6202 21.3809 58.8383 22.1719 58.8383 23.1212V28.2743C57.6767 27.551 56.3141 27.1216 54.8622 27.1216C50.7296 27.1216 47.3789 30.4892 47.3789 34.6252C47.3789 38.7612 50.7296 42.1288 54.8622 42.1288C56.3588 42.1288 57.7661 41.6768 58.9277 40.9084C59.1511 41.609 59.8212 42.1288 60.5807 42.1288C61.5412 42.1288 62.3231 41.3378 62.3231 40.3885V23.1664C62.3231 22.1719 61.5412 21.3809 60.5807 21.3809ZM54.8398 38.6256C52.6507 38.6256 50.8636 36.8401 50.8636 34.6252C50.8636 32.4329 52.6507 30.6248 54.8398 30.6248C57.0289 30.6248 58.816 32.4103 58.816 34.6252C58.8383 36.8401 57.0513 38.6256 54.8398 38.6256Z" fill="white"/>
<path d="M117.856 34.7837V40.3663C117.856 41.3381 117.075 42.1066 116.114 42.1066C115.154 42.1066 114.372 41.3155 114.372 40.3663V34.7385C114.372 32.5236 112.562 30.6025 110.328 30.6251C109.681 30.6251 109.078 30.7833 108.541 31.0771C108.407 31.1449 108.296 31.2127 108.162 31.3032C107.469 31.1223 106.732 31.0093 105.973 31.0093H103.828C103.895 30.8963 103.94 30.8059 104.007 30.6929C105.302 28.591 107.626 27.1671 110.284 27.1445C114.461 27.0767 117.856 30.6025 117.856 34.7837Z" fill="white"/>
<path d="M95.2056 27.1445C93.5303 27.1445 92.0113 27.8452 90.9167 28.9526C89.8222 27.8452 88.3032 27.1445 86.6278 27.1445C83.2995 27.1445 80.5742 29.8567 80.5742 33.2017V40.3889C80.5742 41.3607 81.356 42.1292 82.3166 42.1292C83.2771 42.1292 84.0589 41.3381 84.0589 40.3889V33.2017C84.0589 31.8004 85.1982 30.6477 86.6055 30.6477C88.0128 30.6477 89.152 31.8004 89.152 33.2017V40.3889C89.152 41.3607 89.9339 42.1292 90.8944 42.1292C91.8549 42.1292 92.6368 41.3381 92.6368 40.3889V33.2017C92.6368 31.8004 93.776 30.6477 95.1833 30.6477C96.5906 30.6477 97.7298 31.8004 97.7298 33.2017V40.3889C97.7298 41.3607 98.5117 42.1292 99.4722 42.1292C100.433 42.1292 101.215 41.3381 101.215 40.3889V33.2017C101.259 29.8567 98.534 27.1445 95.2056 27.1445Z" fill="white"/>
<path d="M38.8242 38.6254C37.4169 38.6254 36.2777 37.4727 36.2777 36.0714V31.5286H38.0424C39.0029 31.5286 39.7848 30.7375 39.7848 29.7883C39.7848 28.8164 39.0029 28.048 38.0424 28.048H36.2777V23.1661C36.2777 22.1942 35.4959 21.4258 34.5353 21.4258C33.5748 21.4258 32.793 22.2168 32.793 23.1661V36.094C32.793 39.439 35.4959 42.1512 38.8466 42.1512C39.8071 42.1512 40.5889 41.3601 40.5889 40.4109C40.5889 39.4164 39.8071 38.6254 38.8242 38.6254Z" fill="white"/>
<path d="M43.9846 28.0254C43.024 28.0254 42.2422 28.8164 42.2422 29.7657V40.3657C42.2422 41.3375 43.024 42.106 43.9846 42.106C44.9451 42.106 45.7269 41.3149 45.7269 40.3657V29.7657C45.7269 28.8164 44.9451 28.0254 43.9846 28.0254Z" fill="white"/>
<path d="M43.9846 21.3809C43.024 21.3809 42.2422 22.1719 42.2422 23.1212V24.0478C42.2422 25.0197 43.024 25.7881 43.9846 25.7881C44.9451 25.7881 45.7269 24.9971 45.7269 24.0478V23.1212C45.7269 22.1719 44.9451 21.3809 43.9846 21.3809Z" fill="white"/>
<path d="M9.62778 3.81934C5.49524 3.81934 2.14453 7.18693 2.14453 11.323C2.14453 13.9899 3.55183 16.363 5.6516 17.6739V15.9788C5.6516 15.007 5.80797 14.0803 6.1207 13.2215C5.80797 12.6564 5.62927 12.001 5.62927 11.323C5.62927 9.10804 7.41631 7.32254 9.60544 7.32254C10.3649 7.32254 11.0797 7.54855 11.6829 7.91017C12.42 7.68415 13.2242 7.57115 14.0284 7.57115H16.0835C14.8102 5.33362 12.3977 3.81934 9.62778 3.81934ZM34.5347 6.6671C31.2063 6.6671 28.4811 9.40185 28.4811 12.7468C28.4811 13.6735 28.6821 14.5549 29.0619 15.346H18.2279C17.9152 15.346 17.6471 15.233 17.4461 15.0296C16.977 16.1144 16.2845 17.0863 15.4133 17.8999C16.1952 18.5102 17.1557 18.8492 18.2279 18.8492H34.5347C34.6687 18.8492 34.8251 18.8266 34.9591 18.804C38.1088 18.6006 40.5883 15.9562 40.5883 12.7468C40.5883 9.37925 37.8631 6.6671 34.5347 6.6671ZM34.5347 15.3008C33.1274 15.3008 31.9882 14.1481 31.9882 12.7468C31.9882 11.3456 33.1274 10.1703 34.5347 10.1703C35.942 10.1703 37.0812 11.323 37.0812 12.7242C37.0812 14.1255 35.942 15.3008 34.5347 15.3008Z" fill="white"/>
<path d="M116.113 26.0141C115.153 26.0141 114.371 25.2231 114.371 24.2512V23.1438C114.371 22.1719 115.153 21.3809 116.113 21.3809C117.074 21.3809 117.856 22.1719 117.856 23.1438V24.2512C117.856 25.2231 117.074 26.0141 116.113 26.0141Z" fill="white"/>
<path d="M116.113 18.8042C115.153 18.8042 114.371 18.0132 114.371 17.0413V2.71212C114.371 1.74026 115.153 0.949219 116.113 0.949219C117.074 0.949219 117.856 1.74026 117.856 2.71212V17.0413C117.856 18.0132 117.074 18.8042 116.113 18.8042Z" fill="white"/>
<path d="M43.9611 18.8042C43.0006 18.8042 42.2188 18.0132 42.2188 17.0413V2.71212C42.2188 1.74026 43.0006 0.949219 43.9611 0.949219C44.9217 0.949219 45.7035 1.74026 45.7035 2.71212V17.0413C45.7258 18.0132 44.944 18.8042 43.9611 18.8042Z" fill="white"/>
<path d="M111.668 8.43017V12.747C111.668 16.092 108.942 18.8042 105.614 18.8042C103.939 18.8042 102.42 18.1035 101.303 16.9961C100.208 18.1035 98.6892 18.8042 96.9915 18.8042C95.3161 18.8042 93.7971 18.1035 92.6802 16.9961C91.5857 18.1035 90.0667 18.8042 88.369 18.8042H75.7927C74.1173 18.8042 72.5983 18.1261 71.5038 17.0187C70.4092 18.1487 68.8679 18.8494 67.1925 18.8494H62.0548C60.3571 18.8494 58.8381 18.1487 57.7435 17.0187C56.649 18.1261 55.13 18.8042 53.4546 18.8042H49.0764C48.1158 18.8042 47.334 18.0131 47.334 17.0413C47.334 16.0694 48.1158 15.2784 49.0764 15.2784H53.4546C54.8619 15.2784 56.0011 14.1257 56.0011 12.7244C56.0011 11.3231 54.8619 10.1705 53.4546 10.1705H50.4837C49.5231 10.1705 48.7413 9.37943 48.7413 8.40757C48.7413 7.43572 49.5231 6.64467 50.4837 6.64467H53.4546C56.783 6.64467 59.5082 9.35683 59.5082 12.7018V12.747C59.5082 14.1483 60.6475 15.301 62.0548 15.301H67.1925C68.5998 15.301 69.7391 14.1483 69.7391 12.747V8.38497C69.7391 7.41311 70.5209 6.62207 71.4814 6.62207C72.442 6.62207 73.2238 7.41311 73.2238 8.38497V12.7244C73.2238 14.1257 74.363 15.2784 75.7703 15.2784H88.3466C89.7539 15.2784 90.8932 14.1257 90.8932 12.7244V9.78625C90.8932 8.81439 91.675 8.02335 92.6356 8.02335C93.5961 8.02335 94.3779 8.81439 94.3779 9.78625V12.7244C94.3779 14.1257 95.5172 15.2784 96.9245 15.2784C98.3317 15.2784 99.471 14.1257 99.471 12.7244V9.78625C99.471 8.81439 100.253 8.02335 101.213 8.02335C102.174 8.02335 102.956 8.81439 102.956 9.78625V12.7244C102.956 14.1257 104.095 15.2784 105.502 15.2784C106.91 15.2784 108.049 14.1257 108.049 12.7244V8.43017C108.049 7.45832 108.831 6.66727 109.791 6.66727C110.886 6.66727 111.668 7.45832 111.668 8.43017Z" fill="white"/>
<path d="M62.5685 5.55988C61.608 5.55988 60.8262 4.76883 60.8262 3.79698V2.71212C60.8262 1.74026 61.608 0.949219 62.5685 0.949219C63.5291 0.949219 64.3109 1.74026 64.3109 2.71212V3.81958C64.3109 4.79144 63.5291 5.55988 62.5685 5.55988Z" fill="white"/>
<path d="M66.924 5.55988C65.9635 5.55988 65.1816 4.76883 65.1816 3.79698V2.71212C65.1816 1.74026 65.9635 0.949219 66.924 0.949219C67.8845 0.949219 68.6664 1.74026 68.6664 2.71212V3.81958C68.6664 4.79144 67.8845 5.55988 66.924 5.55988Z" fill="white"/>
<path d="M13.9172 38.626H9.71762C8.15396 38.626 6.79134 37.7219 6.14353 36.3885H11.9067C14.498 36.3885 16.6871 34.2639 16.6424 31.6874C16.5977 29.1786 14.5426 27.1445 12.0408 27.1445H9.71762C5.58508 27.1445 2.23438 30.4895 2.23438 34.6256C2.23438 36.7049 3.06088 38.5582 4.4235 39.9369C5.78612 41.2929 7.64018 42.1292 9.71762 42.1292H13.9842C14.9671 42.1292 15.7489 41.3155 15.7266 40.3211C15.7042 39.3718 14.8777 38.626 13.9172 38.626ZM9.71762 30.6477H12.0184C12.6439 30.6477 13.1353 31.145 13.1353 31.7778C13.1353 32.4106 12.6439 32.9079 12.0184 32.9079H6.14353C6.79134 31.5518 8.15396 30.6477 9.71762 30.6477Z" fill="white"/>
<path d="M16.7313 8.97266V11.7074C16.7313 15.6174 13.5817 18.7816 9.67251 18.7816H7.79611L12.2637 14.3066C12.5094 14.0805 12.5094 13.6963 12.2637 13.4477C12.018 13.2217 11.6383 13.2217 11.4149 13.4477L6.94727 17.9228V16.0469C6.94727 15.527 7.01428 15.0072 7.10363 14.51C7.57273 12.3854 8.98003 10.6225 10.8788 9.6959C10.9234 9.6733 10.9905 9.62809 11.0575 9.60549C11.1245 9.56029 11.2138 9.53769 11.3032 9.49249C11.7946 9.28907 12.3084 9.15347 12.8222 9.06306C12.8445 9.06306 12.8668 9.06306 12.8892 9.06306C13.2466 8.99526 13.604 8.97266 13.9838 8.97266H16.7313Z" fill="white"/>
<path d="M107.715 36.7944C107.491 37.0204 107.491 37.4046 107.715 37.6532L112.182 42.1283H110.306C106.419 42.1283 103.27 38.9641 103.27 35.0767V32.3193H105.995C109.882 32.3193 113.031 35.4835 113.031 39.3709V41.2468L108.564 36.7718C108.34 36.5684 107.961 36.5684 107.715 36.7944Z" fill="white"/>
<path d="M67.0374 50.6723H67.3725V51.0791H66.9927C66.6576 51.0791 66.4119 50.9435 66.2556 50.6949C66.0992 50.8531 65.8982 50.9209 65.6748 50.9209C65.3844 50.9209 65.161 50.8079 64.9823 50.6045C64.8483 50.4236 64.7812 50.1976 64.7812 49.9264C64.7812 49.61 64.8706 49.3614 65.0716 49.158C65.228 48.9998 65.4291 48.9094 65.6748 48.9094C65.8535 48.9094 66.0098 48.9546 66.1439 49.045V48.819L66.5683 48.5929V50.175C66.5683 50.4915 66.7247 50.6723 67.0374 50.6723ZM66.1439 49.497C66.0322 49.3614 65.8758 49.2936 65.6971 49.2936C65.5631 49.2936 65.4291 49.3614 65.3397 49.4744C65.2503 49.5874 65.2057 49.7456 65.2057 49.9264C65.2057 50.1072 65.2503 50.2654 65.3397 50.3784C65.4291 50.4915 65.5407 50.5593 65.6971 50.5593C65.8758 50.5593 66.0322 50.4915 66.1439 50.3332C66.1439 50.2654 66.1439 50.2202 66.1439 50.1976V49.497ZM65.4961 48.2765C65.3397 48.2765 65.2504 48.1861 65.2504 48.0279C65.2504 47.8697 65.3397 47.7793 65.4961 47.7793C65.6524 47.7793 65.7418 47.8697 65.7418 48.0279C65.7418 48.2087 65.6524 48.2765 65.4961 48.2765ZM66.1215 48.2765C65.9652 48.2765 65.8758 48.1861 65.8758 48.0279C65.8758 47.8697 65.9652 47.7793 66.1215 47.7793C66.2779 47.7793 66.3673 47.8697 66.3673 48.0279C66.3673 48.2087 66.2779 48.2765 66.1215 48.2765Z" fill="white"/>
<path d="M67.9298 50.6719H67.0586V51.0787H67.9298V50.6719Z" fill="white"/>
<path d="M68.5118 50.6719H67.6406V51.0787H68.5118V50.6719Z" fill="white"/>
<path d="M69.0685 50.6719H68.1973V51.0787H69.0685V50.6719Z" fill="white"/>
<path d="M69.6505 50.6719H68.7793V51.0787H69.6505V50.6719Z" fill="white"/>
<path d="M70.2091 50.6719H69.3379V51.0787H70.2091V50.6719Z" fill="white"/>
<path d="M70.7892 50.6719H69.918V51.0787H70.7892V50.6719Z" fill="white"/>
<path d="M71.3477 50.6719H70.4766V51.0787H71.3477V50.6719Z" fill="white"/>
<path d="M71.9278 50.6719H71.0566V51.0787H71.9278V50.6719Z" fill="white"/>
<path d="M72.4864 50.6719H71.6152V51.0787H72.4864V50.6719Z" fill="white"/>
<path d="M73.0684 50.6719H72.1973V51.0787H73.0684V50.6719Z" fill="white"/>
<path d="M73.627 50.6719H72.7559V51.0787H73.627V50.6719Z" fill="white"/>
<path d="M74.2071 50.6719H73.3359V51.0787H74.2071V50.6719Z" fill="white"/>
<path d="M74.7657 50.6719H73.8945V51.0787H74.7657V50.6719Z" fill="white"/>
<path d="M75.3458 50.6719H74.4746V51.0787H75.3458V50.6719Z" fill="white"/>
<path d="M75.9044 50.6719H75.0332V51.0787H75.9044V50.6719Z" fill="white"/>
<path d="M76.4864 50.6719H75.6152V51.0787H76.4864V50.6719Z" fill="white"/>
<path d="M77.8919 50.6719H78.227V51.0788H77.8472C77.5792 51.0788 77.3558 50.9884 77.1994 50.8075C77.0431 50.9884 76.8197 51.0788 76.5516 51.0788H76.1719V50.6719H76.5069C76.8197 50.6719 76.9984 50.5137 76.9984 50.1747V49.1577L77.4228 48.9316V50.1747C77.4005 50.4911 77.5792 50.6719 77.8919 50.6719ZM76.708 51.5534C76.8644 51.5534 76.9537 51.6438 76.9537 51.802C76.9537 51.9602 76.8644 52.0506 76.708 52.0506C76.5516 52.0506 76.4623 51.9602 76.4623 51.802C76.4846 51.6438 76.5516 51.5534 76.708 51.5534ZM77.3335 51.5534C77.4898 51.5534 77.5792 51.6438 77.5792 51.802C77.5792 51.9602 77.4898 52.0506 77.3335 52.0506C77.1771 52.0506 77.0877 51.9602 77.0877 51.802C77.1101 51.6438 77.1771 51.5534 77.3335 51.5534Z" fill="white"/>
<path d="M79.6341 50.6717H79.9692V51.0785H79.5894C79.3214 51.0785 79.098 50.9881 78.9416 50.8073C78.7852 50.9881 78.5619 51.0785 78.2938 51.0785H77.9141V50.6717H78.2491C78.5619 50.6717 78.7406 50.5135 78.7406 50.1745V49.1574L79.165 48.9314V50.1745C79.1427 50.4909 79.299 50.6717 79.6341 50.6717ZM79.2543 48.0952L79.1427 48.2986H78.3385L78.4502 48.0952H78.5842C78.5619 48.0274 78.5395 47.9822 78.5395 47.9144C78.5395 47.824 78.5842 47.7335 78.6512 47.6657C78.7182 47.5979 78.8076 47.5527 78.8969 47.5527C78.9863 47.5527 79.0533 47.5753 79.1427 47.6205V47.8466C79.0756 47.8013 79.0086 47.7561 78.9416 47.7561C78.8299 47.7561 78.7629 47.8013 78.7629 47.9144C78.7629 47.9596 78.7852 48.0274 78.8299 48.0726H79.2543V48.0952Z" fill="white"/>
<path d="M81.3771 50.6719H81.7122V51.0788H81.3101C81.0421 51.0788 80.8187 50.9884 80.6623 50.8075C80.506 50.9884 80.2826 51.0788 80.0145 51.0788H79.6348V50.6719H79.9698C80.2826 50.6719 80.4613 50.5137 80.4613 50.1747V49.1577L80.8857 48.9316V50.1747C80.8857 50.4911 81.0421 50.6719 81.3771 50.6719ZM80.1932 51.5534C80.3496 51.5534 80.4389 51.6438 80.4389 51.802C80.4389 51.9602 80.3496 52.0506 80.1932 52.0506C80.0369 52.0506 79.9475 51.9602 79.9475 51.802C79.9475 51.6438 80.0369 51.5534 80.1932 51.5534ZM80.8187 51.5534C80.975 51.5534 81.0644 51.6438 81.0644 51.802C81.0644 51.9602 80.975 52.0506 80.8187 52.0506C80.6623 52.0506 80.573 51.9602 80.573 51.802C80.573 51.6438 80.6623 51.5534 80.8187 51.5534Z" fill="white"/>
<path d="M83.0978 50.6719H83.4106V51.0788H83.0308C82.7628 51.0788 82.5394 50.9884 82.383 50.8075C82.2266 50.9884 82.0033 51.0788 81.7352 51.0788H81.3555V50.6719H81.6905C82.0033 50.6719 82.182 50.5137 82.182 50.1747V49.1577L82.6064 48.9316V50.1747C82.6287 50.4911 82.7851 50.6719 83.0978 50.6719ZM82.383 51.5534C82.5394 51.5534 82.6287 51.6438 82.6287 51.802C82.6287 51.9602 82.5394 52.0506 82.383 52.0506C82.2266 52.0506 82.1373 51.9602 82.1373 51.802C82.1373 51.6438 82.2266 51.5534 82.383 51.5534Z" fill="white"/>
<path d="M83.1426 51.0559V50.6491H83.4106C83.7457 50.6491 83.9244 50.4683 83.9244 50.1067V48.0952L84.3488 47.8691V50.1067C84.3488 50.4005 84.2595 50.6265 84.0808 50.8073C83.9244 50.9655 83.701 51.0333 83.433 51.0333H83.1426V51.0559Z" fill="white"/>
<path d="M85.2188 51.0558V48.1176L85.6432 47.8916V51.0558H85.2188Z" fill="white"/>
<path d="M88.4808 51.0563C88.2128 51.0563 88.0117 50.9659 87.8553 50.7851C87.7213 50.6269 87.6543 50.4235 87.6543 50.1749V49.5872L88.0787 49.3612V50.1523C88.0787 50.4913 88.2351 50.6721 88.5478 50.6721H90.1785C90.4912 50.6721 90.6476 50.4913 90.6476 50.1523V49.1578L91.072 48.9318V50.1975C91.072 50.4913 90.9827 50.6947 90.804 50.8529C90.6476 50.9885 90.4466 51.0563 90.2008 51.0563H88.4808ZM88.9946 48.7736C88.8382 48.7736 88.7489 48.6832 88.7489 48.525C88.7489 48.3668 88.8382 48.2764 88.9946 48.2764C89.1509 48.2764 89.2403 48.3668 89.2403 48.525C89.218 48.6832 89.1509 48.7736 88.9946 48.7736ZM89.5977 48.7736C89.4413 48.7736 89.352 48.6832 89.352 48.525C89.352 48.3668 89.4413 48.2764 89.5977 48.2764C89.7541 48.2764 89.8434 48.3668 89.8434 48.525C89.8434 48.6832 89.7541 48.7736 89.5977 48.7736Z" fill="white"/>
<path d="M92.7473 51.0559C92.4569 51.0559 92.2335 50.9655 92.0995 50.7847C91.9655 50.6265 91.8984 50.4231 91.8984 50.1745V48.0952L92.3229 47.8691V50.1745C92.3229 50.5135 92.4792 50.6717 92.8143 50.6717H93.127V51.0785H92.7473V51.0559Z" fill="white"/>
<path d="M93.6856 50.6719H92.8145V51.0787H93.6856V50.6719Z" fill="white"/>
<path d="M94.2657 50.6719H93.3945V51.0787H94.2657V50.6719Z" fill="white"/>
<path d="M94.8243 50.6719H93.9531V51.0787H94.8243V50.6719Z" fill="white"/>
<path d="M95.4063 50.6719H94.5352V51.0787H95.4063V50.6719Z" fill="white"/>
<path d="M95.9649 50.6719H95.0938V51.0787H95.9649V50.6719Z" fill="white"/>
<path d="M96.545 50.6719H95.6738V51.0787H96.545V50.6719Z" fill="white"/>
<path d="M97.1036 50.6719H96.2324V51.0787H97.1036V50.6719Z" fill="white"/>
<path d="M97.6837 50.6719H96.8125V51.0787H97.6837V50.6719Z" fill="white"/>
<path d="M98.2423 50.6719H97.3711V51.0787H98.2423V50.6719Z" fill="white"/>
<path d="M98.8243 50.6719H97.9531V51.0787H98.8243V50.6719Z" fill="white"/>
<path d="M99.3829 50.6719H98.5117V51.0787H99.3829V50.6719Z" fill="white"/>
<path d="M99.963 50.6719H99.0918V51.0787H99.963V50.6719Z" fill="white"/>
<path d="M100.522 50.6719H99.6504V51.0787H100.522V50.6719Z" fill="white"/>
<path d="M101.102 50.6719H100.23V51.0787H101.102V50.6719Z" fill="white"/>
<path d="M101.66 50.6719H100.789V51.0787H101.66V50.6719Z" fill="white"/>
<path d="M102.242 50.6719H101.371V51.0787H102.242V50.6719Z" fill="white"/>
<path d="M102.799 50.6719H101.928V51.0787H102.799V50.6719Z" fill="white"/>
<path d="M103.381 50.6719H102.51V51.0787H103.381V50.6719Z" fill="white"/>
<path d="M103.94 50.6719H103.068V51.0787H103.94V50.6719Z" fill="white"/>
<path d="M104.52 50.6719H103.648V51.0787H104.52V50.6719Z" fill="white"/>
<path d="M105.078 50.6719H104.207V51.0787H105.078V50.6719Z" fill="white"/>
<path d="M105.658 50.6719H104.787V51.0787H105.658V50.6719Z" fill="white"/>
<path d="M106.217 50.6719H105.346V51.0787H106.217V50.6719Z" fill="white"/>
<path d="M106.732 49.7231C106.732 49.4293 106.821 49.2259 106.978 49.0677C107.134 48.9321 107.335 48.8643 107.558 48.8643C107.871 48.8643 108.117 48.9773 108.273 49.2033C108.407 49.4067 108.497 49.6553 108.497 49.9717C108.497 50.3333 108.407 50.6046 108.229 50.808C108.072 50.9888 107.849 51.0792 107.603 51.0792C107.313 51.0792 107.089 50.9888 106.933 50.8306C106.777 50.9888 106.576 51.0792 106.307 51.0792H105.928V50.6724H106.263C106.576 50.6724 106.754 50.5142 106.754 50.1751V49.7231H106.732ZM107.156 50.1977C107.156 50.5142 107.313 50.6498 107.603 50.6498C107.759 50.6498 107.871 50.582 107.96 50.4689C108.05 50.3333 108.095 50.1751 108.095 49.9491C108.095 49.7231 108.05 49.5649 107.96 49.4293C107.871 49.3163 107.737 49.2485 107.581 49.2485C107.29 49.2485 107.156 49.4067 107.156 49.7457V50.1977Z" fill="white"/>
<path d="M108.92 51.0566L109.121 50.6498H109.992C110.126 50.6498 110.216 50.6272 110.26 50.5594C110.305 50.4916 110.35 50.3785 110.35 50.2203C110.35 49.7909 110.149 49.4519 109.746 49.2259L109.97 48.8643C110.484 49.1581 110.752 49.5875 110.774 50.1073C110.774 50.2881 110.819 50.4237 110.908 50.5142C110.997 50.6046 111.109 50.6498 111.288 50.6498H111.578V51.0566H111.265C110.997 51.0566 110.774 50.9662 110.618 50.7854C110.506 50.9662 110.327 51.0566 110.081 51.0566H108.92Z" fill="white"/>
<path d="M114.482 50.672H114.795V51.0788H114.482C114.214 51.0788 114.013 51.0562 113.835 50.9884C113.678 50.9206 113.522 50.8302 113.388 50.672C112.986 50.9432 112.494 51.0788 111.936 51.0788H111.266V50.672H111.936C112.606 50.672 113.12 50.446 113.522 50.0165C113.254 49.5193 112.919 49.2707 112.539 49.2707C112.271 49.2707 112.003 49.4063 111.712 49.7001V49.2707C111.98 48.9995 112.271 48.8413 112.584 48.8413C112.829 48.8413 113.075 48.9317 113.321 49.1125C113.566 49.2933 113.767 49.5645 113.946 49.9035V50.1295C113.835 50.2652 113.745 50.3556 113.656 50.446C113.834 50.5816 114.125 50.672 114.482 50.672ZM112.785 48.3214C112.628 48.3214 112.539 48.231 112.539 48.0728C112.539 47.9146 112.628 47.8242 112.785 47.8242C112.941 47.8242 113.03 47.9146 113.03 48.0728C113.008 48.2536 112.941 48.3214 112.785 48.3214Z" fill="white"/>
<path d="M116.18 50.6716H116.515V51.0784H116.136C115.845 51.0784 115.644 50.988 115.488 50.8072C115.332 50.988 115.108 51.0784 114.818 51.0784H114.527V50.6716H114.795C115.13 50.6716 115.309 50.4908 115.309 50.1291V48.1176L115.734 47.8916V50.1291C115.734 50.3099 115.778 50.4455 115.845 50.536C115.89 50.6264 116.024 50.6716 116.18 50.6716Z" fill="white"/>
<path d="M116.225 51.0559V50.6491H116.493C116.828 50.6491 117.006 50.4683 117.006 50.1067V48.0952L117.431 47.8691V50.1067C117.431 50.4005 117.342 50.6265 117.163 50.8073C117.006 50.9655 116.783 51.0333 116.515 51.0333H116.225V51.0559Z" fill="white"/>
<path d="M2.72461 47.4854H4.82439V47.847H3.14903V49.0222H4.55633V49.3839H3.14903V50.7173H4.8914V51.0564H2.72461V47.4854Z" fill="white"/>
<path d="M7.66288 51.0566H7.28314V49.5423C7.28314 48.9999 7.05976 48.7287 6.59066 48.7287C6.45663 48.7287 6.3226 48.7513 6.18857 48.8191C6.05455 48.8869 5.96519 48.9547 5.87584 49.0677V51.034H5.49609V48.4574H5.80883L5.83116 48.7287H5.8535C6.07688 48.5027 6.34494 48.3896 6.68001 48.3896C7.30548 48.3896 7.64055 48.7513 7.64055 49.4971V51.0566H7.66288Z" fill="white"/>
<path d="M9.35981 51.0559H8.98007L8.01953 48.502H8.42162L9.18111 50.6265L9.9406 48.502H10.3427L9.35981 51.0559Z" fill="white"/>
<path d="M10.6992 47.6664C10.6992 47.5986 10.7216 47.5534 10.7662 47.5082C10.8109 47.463 10.8779 47.4404 10.9449 47.4404C11.012 47.4404 11.079 47.463 11.1236 47.5082C11.1683 47.5534 11.1907 47.6212 11.1907 47.6664C11.1907 47.7342 11.1683 47.8021 11.1236 47.8473C11.079 47.8925 11.012 47.9151 10.9449 47.9151C10.8779 47.9151 10.8109 47.8925 10.7662 47.8473C10.7216 47.7794 10.6992 47.7342 10.6992 47.6664ZM11.1236 51.0566H10.7439V48.4801H11.1236V51.0566Z" fill="white"/>
<path d="M13.5601 48.7059L13.2474 48.9319C13.1134 48.8189 12.9793 48.7511 12.8453 48.7511C12.6219 48.7511 12.4432 48.8641 12.2645 49.0901V51.0565H11.8848V48.4799H12.1975L12.2422 48.7511C12.4656 48.5251 12.6889 48.4121 12.9347 48.4121C13.225 48.4347 13.4261 48.5251 13.5601 48.7059Z" fill="white"/>
<path d="M16.1291 49.7909C16.1291 50.1977 15.995 50.5368 15.7493 50.7854C15.5259 51.0114 15.2355 51.1244 14.9005 51.1244C14.5207 51.1244 14.208 50.9662 13.9623 50.6724C13.7612 50.4238 13.6719 50.1299 13.6719 49.7683C13.6719 49.3615 13.8059 49.0225 14.0516 48.7513C14.275 48.5253 14.5654 48.3896 14.9228 48.3896C15.3249 48.3896 15.6376 48.5479 15.861 48.8417C16.0174 49.1129 16.1291 49.4293 16.1291 49.7909ZM14.074 49.7909C14.074 50.1299 14.1633 50.3786 14.3197 50.582C14.476 50.7628 14.6547 50.8306 14.9005 50.8306C15.1462 50.8306 15.3472 50.7402 15.5036 50.5368C15.66 50.356 15.727 50.0847 15.727 49.7909C15.727 49.4745 15.6376 49.2033 15.4813 48.9999C15.3249 48.8191 15.1462 48.7287 14.9005 48.7287C14.6547 48.7287 14.4537 48.8191 14.2973 49.0225C14.141 49.2259 14.074 49.4745 14.074 49.7909Z" fill="white"/>
<path d="M18.8543 51.0566H18.4745V49.5423C18.4745 48.9999 18.2512 48.7287 17.7821 48.7287C17.648 48.7287 17.514 48.7513 17.38 48.8191C17.246 48.8869 17.1566 48.9547 17.0672 49.0677V51.034H16.6875V48.4574H17.0002L17.0226 48.7287H17.0449C17.2683 48.5027 17.5363 48.3896 17.8714 48.3896C18.4969 48.3896 18.832 48.7513 18.832 49.4971V51.0566H18.8543Z" fill="white"/>
<path d="M23.3871 51.0563H23.0073V49.5872C23.0073 49.0222 22.7839 48.751 22.3148 48.751C22.0691 48.751 21.8234 48.864 21.6224 49.09C21.667 49.2256 21.6894 49.3612 21.6894 49.542V51.0789H21.3096V49.5872C21.3096 49.0448 21.0862 48.7736 20.6171 48.7736C20.5055 48.7736 20.3714 48.7962 20.2374 48.864C20.1034 48.9318 20.014 49.0222 19.9247 49.1126V51.0789H19.5449V48.5024H19.88L19.9247 48.7736H19.947C20.1927 48.5476 20.4608 48.4346 20.7735 48.4346C21.1533 48.4346 21.399 48.5702 21.5553 48.8414C21.8011 48.5702 22.1138 48.4346 22.4935 48.4346C22.8063 48.4346 23.0297 48.525 23.2084 48.7284C23.3647 48.9092 23.4317 49.1804 23.4317 49.5194V51.0563H23.3871Z" fill="white"/>
<path d="M26.1811 49.9038H24.3494C24.3717 50.175 24.461 50.401 24.6397 50.5592C24.8185 50.7174 25.0418 50.8078 25.3099 50.8078C25.5333 50.8078 25.779 50.74 26.0024 50.6044L26.1364 50.8304C25.8907 51.0339 25.6003 51.1243 25.2429 51.1243C24.8408 51.1243 24.5057 50.9887 24.2823 50.7174C24.059 50.4688 23.9473 50.1524 23.9473 49.7682C23.9473 49.3614 24.059 49.0449 24.3047 48.7737C24.5281 48.5251 24.7738 48.4121 25.1088 48.4121C25.4886 48.4121 25.779 48.5703 25.98 48.8867C26.1364 49.1354 26.2034 49.4292 26.2034 49.7908V49.9038H26.1811ZM24.3494 49.61H25.8013C25.779 49.3388 25.7343 49.1128 25.6003 48.9545C25.4886 48.7963 25.3099 48.7285 25.0865 48.7285C24.8855 48.7285 24.7068 48.8189 24.5727 48.9771C24.4387 49.1354 24.3717 49.3388 24.3494 49.61Z" fill="white"/>
<path d="M28.9051 51.0566H28.5253V49.5423C28.5253 48.9999 28.3019 48.7287 27.8328 48.7287C27.6988 48.7287 27.5648 48.7513 27.4308 48.8191C27.2967 48.8869 27.2074 48.9547 27.118 49.0677V51.034H26.7383V48.4574H27.051L27.0957 48.7287H27.118C27.3414 48.5027 27.6095 48.3896 27.9445 48.3896C28.57 48.3896 28.9051 48.7513 28.9051 49.4971V51.0566Z" fill="white"/>
<path d="M30.1345 48.7958V50.4005C30.1345 50.6717 30.2462 50.8073 30.4696 50.8073C30.6036 50.8073 30.7153 50.7847 30.827 50.7169L30.961 50.9203C30.7823 51.0559 30.5813 51.1237 30.3802 51.1237C30.1792 51.1237 30.0228 51.0559 29.9111 50.9429C29.7994 50.8073 29.7547 50.6491 29.7547 50.4231V48.7958H29.375V48.4794H29.7771V47.9143L30.1568 47.7109V48.4568H30.9387V48.7732H30.1345V48.7958Z" fill="white"/>
<path d="M33.3735 51.0565H33.0831L33.0161 50.7852C32.7927 51.0113 32.5023 51.1243 32.1672 51.1243C31.8991 51.1243 31.6981 51.0565 31.5417 50.8982C31.3854 50.7626 31.3184 50.5592 31.3184 50.3106C31.3184 49.723 31.7428 49.4292 32.614 49.4292H32.9937V49.4066C32.9937 48.9545 32.7703 48.7285 32.3459 48.7285C32.1002 48.7285 31.8545 48.8189 31.6311 48.9771L31.4971 48.7737C31.7651 48.5251 32.0779 48.4121 32.4353 48.4121C32.7257 48.4121 32.9714 48.5025 33.1277 48.6833C33.2841 48.8641 33.3735 49.1353 33.3735 49.4744V51.0565ZM33.0161 49.723H32.681C32.0555 49.723 31.7651 49.9038 31.7651 50.288C31.7651 50.4462 31.8098 50.5818 31.8991 50.6722C31.9885 50.7626 32.1225 50.8078 32.3012 50.8078C32.4576 50.8078 32.5916 50.7626 32.7257 50.6948C32.8597 50.627 32.9714 50.514 33.0161 50.401V49.723Z" fill="white"/>
<path d="M34.4891 47.417V51.0558H34.1094V47.6204L34.4891 47.417Z" fill="white"/>
<path d="M36.5664 50.762L36.7451 50.5134C37.0132 50.6716 37.3036 50.762 37.6163 50.762C37.862 50.762 38.0407 50.7168 38.1747 50.6038C38.3088 50.4908 38.3758 50.3326 38.3758 50.1291C38.3758 49.7901 38.1524 49.5189 37.6833 49.3607C37.3036 49.2251 37.0132 49.0895 36.8345 48.9087C36.6558 48.7505 36.5664 48.5471 36.5664 48.321C36.5664 48.0498 36.6781 47.8238 36.9015 47.643C37.1025 47.4848 37.3706 47.417 37.6833 47.417C38.0407 47.417 38.3535 47.5074 38.6438 47.7108L38.4651 47.9594C38.2418 47.8238 37.9737 47.7786 37.7056 47.7786C37.4823 47.7786 37.3036 47.8238 37.1919 47.9142C37.0578 48.0046 36.9908 48.1402 36.9908 48.2984C36.9908 48.5471 37.1919 48.7505 37.5716 48.9087C38.0184 49.0895 38.3311 49.2477 38.5098 49.4285C38.6885 49.6093 38.7779 49.8353 38.7779 50.1291C38.7779 50.4682 38.6438 50.7168 38.3981 50.8976C38.1971 51.0558 37.929 51.1236 37.6386 51.1236C37.3259 51.1236 36.9462 51.0106 36.5664 50.762Z" fill="white"/>
<path d="M41.5268 49.9038H39.6951C39.7174 50.175 39.8067 50.401 39.9854 50.5592C40.1642 50.7174 40.3875 50.8078 40.6556 50.8078C40.879 50.8078 41.1247 50.74 41.3481 50.6044L41.4821 50.8304C41.2364 51.0339 40.946 51.1243 40.5886 51.1243C40.1865 51.1243 39.8514 50.9887 39.628 50.7174C39.4047 50.4688 39.293 50.1524 39.293 49.7682C39.293 49.3614 39.4047 49.0449 39.6504 48.7737C39.8738 48.5251 40.1195 48.4121 40.4545 48.4121C40.8343 48.4121 41.1247 48.5703 41.3257 48.8867C41.4821 49.1354 41.5491 49.4292 41.5491 49.7908V49.9038H41.5268ZM39.6951 49.61H41.147C41.1247 49.3388 41.08 49.1128 40.946 48.9545C40.8343 48.7963 40.6556 48.7285 40.4322 48.7285C40.2312 48.7285 40.0525 48.8189 39.9184 48.9771C39.7844 49.1354 39.7174 49.3388 39.6951 49.61Z" fill="white"/>
<path d="M43.7593 48.7059L43.4466 48.9319C43.3126 48.8189 43.1785 48.7511 43.0445 48.7511C42.8211 48.7511 42.6424 48.8641 42.4637 49.0901V51.0565H42.084V48.4799H42.3967L42.4414 48.7511C42.6648 48.5251 42.8882 48.4121 43.1339 48.4121C43.4243 48.4347 43.6253 48.5251 43.7593 48.7059Z" fill="white"/>
<path d="M45.3012 51.0559H44.9215L43.9609 48.502H44.363L45.1225 50.6265L45.8597 48.502H46.2841L45.3012 51.0559Z" fill="white"/>
<path d="M46.6426 47.6664C46.6426 47.5986 46.6649 47.5534 46.7096 47.5082C46.7543 47.463 46.8213 47.4404 46.8883 47.4404C46.9553 47.4404 47.0223 47.463 47.067 47.5082C47.1117 47.5534 47.134 47.6212 47.134 47.6664C47.134 47.7342 47.1117 47.8021 47.067 47.8473C47.0223 47.8925 46.9553 47.9151 46.8883 47.9151C46.8213 47.9151 46.7543 47.8925 46.7096 47.8473C46.6649 47.7794 46.6426 47.7342 46.6426 47.6664ZM47.067 51.0566H46.6873V48.4801H47.067V51.0566Z" fill="white"/>
<path d="M49.7688 48.7061L49.6348 48.9321C49.4338 48.8191 49.2327 48.7513 49.0093 48.7513C48.6966 48.7513 48.4509 48.8643 48.2945 49.0904C48.1382 49.2938 48.0712 49.5424 48.0712 49.8362C48.0712 50.1526 48.1605 50.4012 48.3615 50.582C48.5403 50.7628 48.7636 50.8533 49.054 50.8533C49.2997 50.8533 49.5008 50.7854 49.7018 50.6498L49.8359 50.8759C49.6348 51.0793 49.3444 51.1697 48.987 51.1697C48.5626 51.1697 48.2499 51.0341 48.0041 50.7402C47.8031 50.4916 47.6914 50.1978 47.6914 49.8136C47.6914 49.4068 47.8254 49.0677 48.0935 48.7965C48.3392 48.5705 48.6073 48.4575 48.9423 48.4575C49.2551 48.4349 49.5455 48.5253 49.7688 48.7061Z" fill="white"/>
<path d="M52.4272 49.9038H50.5954C50.6178 50.175 50.7071 50.401 50.8858 50.5592C51.0645 50.7174 51.2879 50.8078 51.556 50.8078C51.7794 50.8078 52.0251 50.74 52.2485 50.6044L52.3825 50.8304C52.1368 51.0339 51.824 51.1243 51.489 51.1243C51.0869 51.1243 50.7518 50.9887 50.5284 50.7174C50.305 50.4688 50.1934 50.1524 50.1934 49.7682C50.1934 49.3614 50.3051 49.0449 50.5508 48.7737C50.7741 48.5251 51.0199 48.4121 51.3549 48.4121C51.7347 48.4121 52.0251 48.5703 52.2261 48.8867C52.3825 49.1354 52.4495 49.4292 52.4495 49.7908V49.9038H52.4272ZM50.5954 49.61H52.0474C52.0251 49.3388 51.9581 49.1128 51.8464 48.9545C51.7347 48.7963 51.556 48.7285 51.3326 48.7285C51.1316 48.7285 50.9529 48.8189 50.8188 48.9771C50.6848 49.1354 50.6178 49.3388 50.5954 49.61Z" fill="white"/>
<path d="M54.3491 48.8867C54.1704 48.7963 53.947 48.7285 53.7236 48.7285C53.5672 48.7285 53.4555 48.7511 53.3662 48.8189C53.2768 48.8867 53.2322 48.9771 53.2322 49.0901C53.2322 49.2032 53.2768 49.2936 53.3439 49.3614C53.4109 49.4292 53.5672 49.497 53.7906 49.5648C54.1033 49.6552 54.3044 49.7682 54.4384 49.8812C54.5501 49.9942 54.6171 50.1524 54.6171 50.3784C54.6171 50.6044 54.5278 50.7852 54.3714 50.9209C54.215 51.0565 53.9917 51.1243 53.7236 51.1243C53.3885 51.1243 53.0758 51.0339 52.8301 50.8304C52.8301 50.8078 52.8524 50.7852 52.8971 50.74C52.9194 50.6948 52.9418 50.6496 52.9641 50.627C53.1875 50.74 53.4109 50.8078 53.6789 50.8078C54.081 50.8078 54.2821 50.6496 54.2821 50.3558C54.2821 50.2428 54.2374 50.1298 54.148 50.062C54.0587 49.9942 53.9023 49.9264 53.6789 49.8812C53.1428 49.723 52.8748 49.4744 52.8748 49.0901C52.8748 48.8867 52.9641 48.7285 53.0981 48.5929C53.2545 48.4573 53.4555 48.4121 53.7013 48.4121C53.9917 48.4121 54.2597 48.5025 54.4831 48.6607L54.3491 48.8867Z" fill="white"/>
<path d="M60.5593 49.9485C60.5593 50.4232 60.1795 50.7848 59.7328 50.7848C59.2637 50.7848 58.9062 50.4005 58.9062 49.9485C58.9062 49.4739 59.286 49.1123 59.7328 49.1123C60.1795 49.0897 60.5593 49.4739 60.5593 49.9485Z" fill="white"/>
</svg>
