<svg
  xmlns="http://www.w3.org/2000/svg"
  width={48}
  height={48}
  viewBox="0 0 48 48"
  fill="none"
>
  <g opacity="0.3">
    <rect
      x="0.5"
      y="0.5"
      width={47}
      height={47}
      rx="23.5"
      fill="white"
      stroke="#132D2B"
    />
    <path
      d="M21.4816 32.4403L21.4817 32.4403L28.8323 24.9709C29.1891 24.6091 29.189 24.0071 28.8333 23.6446L28.8332 23.6445L21.4825 16.1751L21.4824 16.1751C21.1207 15.8083 20.5332 15.8083 20.1715 16.1751L20.1714 16.1751C19.8107 16.5419 19.8105 17.1356 20.1715 17.5016L26.8693 24.3081L20.1707 31.1146L21.4816 32.4403ZM21.4816 32.4403C21.1198 32.8071 20.5333 32.807 20.1708 32.4404L20.1707 32.4403M21.4816 32.4403H20.1707M20.1707 32.4403C19.8098 32.0744 19.8098 31.4807 20.1706 31.1147L20.1707 32.4403Z"
      fill="#132D2B"
      stroke="#575861"
      strokeWidth="0.2"
    />
  </g>
</svg>
