<svg width="66" height="64" viewBox="0 0 66 64" fill="none" xmlns="http://www.w3.org/2000/svg">
<rect opacity="0.2" width="64" height="64" rx="32" fill="#5EBD8E"/>
<path d="M39.6975 48C38.3507 48 37.2059 47.5333 36.2632 46.6C35.3204 45.6667 34.849 44.5333 34.849 43.2C34.849 43.0133 34.8625 42.8197 34.8894 42.6192C34.9164 42.4187 34.9568 42.2389 35.0106 42.08L23.6167 35.52C23.1588 35.92 22.647 36.2336 22.0813 36.4608C21.5157 36.688 20.9231 36.8011 20.3036 36.8C18.9568 36.8 17.812 36.3333 16.8692 35.4C15.9265 34.4667 15.4551 33.3333 15.4551 32C15.4551 30.6667 15.9265 29.5333 16.8692 28.6C17.812 27.6667 18.9568 27.2 20.3036 27.2C20.9231 27.2 21.5157 27.3136 22.0813 27.5408C22.647 27.768 23.1588 28.0811 23.6167 28.48L35.0106 21.92C34.9568 21.76 34.9164 21.5803 34.8894 21.3808C34.8625 21.1813 34.849 20.9877 34.849 20.8C34.849 19.4667 35.3204 18.3333 36.2632 17.4C37.2059 16.4667 38.3507 16 39.6975 16C41.0443 16 42.1891 16.4667 43.1318 17.4C44.0746 18.3333 44.546 19.4667 44.546 20.8C44.546 22.1333 44.0746 23.2667 43.1318 24.2C42.1891 25.1333 41.0443 25.6 39.6975 25.6C39.078 25.6 38.4854 25.4869 37.9197 25.2608C37.3541 25.0347 36.8423 24.7211 36.3844 24.32L24.9904 30.88C25.0443 31.04 25.0847 31.2203 25.1116 31.4208C25.1386 31.6213 25.152 31.8144 25.152 32C25.152 32.1867 25.1386 32.3803 25.1116 32.5808C25.0847 32.7813 25.0443 32.9611 24.9904 33.12L36.3844 39.68C36.8423 39.28 37.3541 38.9669 37.9197 38.7408C38.4854 38.5147 39.078 38.4011 39.6975 38.4C41.0443 38.4 42.1891 38.8667 43.1318 39.8C44.0746 40.7333 44.546 41.8667 44.546 43.2C44.546 44.5333 44.0746 45.6667 43.1318 46.6C42.1891 47.5333 41.0443 48 39.6975 48Z" fill="#5EBD8E"/>
</svg>
