<?xml version="1.0" standalone="no"?>
<!DOCTYPE svg PUBLIC "-//W3C//DTD SVG 20010904//EN"
 "http://www.w3.org/TR/2001/REC-SVG-20010904/DTD/svg10.dtd">
<svg version="1.0" xmlns="http://www.w3.org/2000/svg"
 width="512.000000pt" height="512.000000pt" viewBox="0 0 512.000000 512.000000"
 preserveAspectRatio="xMidYMid meet">

<g transform="translate(0.000000,512.000000) scale(0.100000,-0.100000)"
fill="green" stroke="none">
<path d="M2445 5104 c-91 -5 -279 -25 -289 -31 -4 -3 -27 -7 -50 -9 -23 -2
-103 -19 -178 -38 -900 -231 -1603 -934 -1834 -1835 -19 -74 -37 -154 -38
-176 -2 -22 -6 -47 -10 -55 -30 -84 -38 -522 -12 -720 153 -1159 1047 -2053
2206 -2206 167 -22 473 -22 640 0 983 130 1791 798 2100 1736 139 423 162 908
64 1350 -232 1037 -1109 1835 -2159 1964 -127 16 -340 25 -440 20z m1535
-1659 l245 -245 -1048 -1048 -1047 -1047 -625 625 -625 625 247 247 248 248
377 -377 378 -378 798 798 c438 438 799 797 802 797 3 0 115 -110 250 -245z"/>
</g>
</svg>
